<svg width="30" height="30" viewBox="0 0 20 25" fill="none" xmlns="http://www.w3.org/2000/svg">
<path d="M9.67195 15.7796C9.88089 15.6872 10.1191 15.6872 10.3281 15.7796L17.3327 18.8766C17.977 19.1615 17.977 20.0757 17.3327 20.3606L10.3281 23.4576C10.1191 23.55 9.88089 23.55 9.67194 23.4576L2.66731 20.3606C2.02304 20.0757 2.02304 19.1615 2.66731 18.8766L9.67195 15.7796Z" fill="#EEEEEE" stroke="black" stroke-width="0.8"/>
<path d="M9.67194 13.681C9.88089 13.5887 10.1191 13.5887 10.3281 13.681L17.3327 16.7781C17.977 17.0629 17.977 17.9771 17.3327 18.262L10.3281 21.359C10.1191 21.4514 9.88089 21.4514 9.67194 21.359L2.66731 18.262C2.02304 17.9771 2.02304 17.0629 2.66731 16.7781L9.67194 13.681Z" fill="#EEEEEE" stroke="black" stroke-width="0.8"/>
<path d="M9.67195 11.5824C9.88089 11.49 10.1191 11.49 10.3281 11.5824L17.3327 14.6794C17.977 14.9643 17.977 15.8785 17.3327 16.1634L10.3281 19.2604C10.1191 19.3527 9.88089 19.3527 9.67195 19.2604L2.66731 16.1633C2.02304 15.8785 2.02304 14.9643 2.66731 14.6794L9.67195 11.5824Z" fill="#EEEEEE" stroke="black" stroke-width="0.8"/>
<path d="M10 2.27777V8.65555" stroke="#DA1E28" stroke-width="2" stroke-linecap="round" stroke-linejoin="round"/>
<path d="M13.5 5.46672L10 8.65561L6.5 5.46672" stroke="#DA1E28" stroke-width="2" stroke-linecap="round" stroke-linejoin="round"/>
</svg>