<svg width="24" height="14" viewBox="0 0 24 14" fill="none" xmlns="http://www.w3.org/2000/svg">
<path d="M11.2639 5.60977C11.5879 5.49502 11.9415 5.49502 12.2655 5.60977L18.0394 7.6547C19.3717 8.12656 19.3717 10.0107 18.0394 10.4826L12.2655 12.5275C11.9415 12.6423 11.5879 12.6423 11.2639 12.5275L5.48999 10.4826C4.15769 10.0107 4.15769 8.12656 5.49 7.6547L11.2639 5.60977Z" fill="white" stroke="#333333"/>
<path d="M12.7345 3.15878C13.0585 3.04403 13.4121 3.04403 13.7361 3.15878L19.51 5.20372C20.8423 5.67557 20.8423 7.55974 19.51 8.0316L13.7361 10.0765C13.4121 10.1913 13.0585 10.1913 12.7345 10.0765L6.96057 8.03159C5.62827 7.55974 5.62827 5.67557 6.96058 5.20371L12.7345 3.15878Z" fill="#FF7272" stroke="black"/>
<path d="M11.2639 0.707788C11.5879 0.593043 11.9415 0.593043 12.2655 0.707789L18.0394 2.75273C19.3717 3.22458 19.3717 5.10875 18.0394 5.58061L12.2655 7.62554C11.9415 7.74029 11.5879 7.74029 11.2639 7.62554L5.48999 5.58061C4.15769 5.10875 4.15769 3.22458 5.49 2.75273L11.2639 0.707788Z" fill="white" stroke="#333333"/>
</svg>
