<svg width="25" height="15" viewBox="0 0 25 15" fill="none" xmlns="http://www.w3.org/2000/svg">
<path d="M11.2307 6.39313C11.5747 6.26212 11.9547 6.26212 12.2987 6.39313L18.445 8.73442C19.733 9.22507 19.733 11.0473 18.445 11.5379L12.2987 13.8792C11.9547 14.0102 11.5747 14.0102 11.2307 13.8792L5.08443 11.5379C3.79638 11.0473 3.79638 9.22507 5.08443 8.73442L11.2307 6.39313Z" fill="#F2F2F2" stroke="#333333"/>
<path d="M12.7014 3.75697C13.0454 3.62596 13.4254 3.62596 13.7694 3.75697L19.9157 6.09826C21.2037 6.58891 21.2037 8.4111 19.9157 8.90175L13.7694 11.243C13.4255 11.374 13.0454 11.374 12.7014 11.243L6.55514 8.90175C5.26708 8.4111 5.26708 6.58891 6.55513 6.09826L12.7014 3.75697Z" fill="#999999" stroke="black"/>
<path d="M11.2307 1.1208C11.5747 0.989794 11.9547 0.989794 12.2987 1.1208L18.445 3.46209C19.733 3.95274 19.733 5.77493 18.445 6.26558L12.2987 8.60687C11.9547 8.73788 11.5747 8.73788 11.2307 8.60687L5.08443 6.26558C3.79638 5.77493 3.79638 3.95274 5.08443 3.46209L11.2307 1.1208Z" fill="#F2F2F2" stroke="#333333"/>
</svg>
