<svg width="19" height="14" viewBox="0 0 19 14" fill="none" xmlns="http://www.w3.org/2000/svg">
<path d="M8.26394 5.60974C8.58792 5.49499 8.94149 5.49499 9.26548 5.60974L15.0394 7.65467C16.3717 8.12653 16.3717 10.0107 15.0394 10.4826L9.26548 12.5275C8.94149 12.6422 8.58792 12.6422 8.26394 12.5275L2.48999 10.4826C1.15769 10.0107 1.15769 8.12653 2.49 7.65467L8.26394 5.60974Z" fill="white" stroke="#333333"/>
<path d="M9.73464 3.15878C10.0586 3.04403 10.4122 3.04403 10.7362 3.15878L16.5101 5.20372C17.8424 5.67557 17.8424 7.55974 16.5101 8.0316L10.7362 10.0765C10.4122 10.1913 10.0586 10.1913 9.73464 10.0765L3.96069 8.03159C2.62839 7.55974 2.62839 5.67557 3.9607 5.20371L9.73464 3.15878Z" fill="#FF7272" stroke="black"/>
<path d="M8.26394 0.707788C8.58792 0.593043 8.94149 0.593043 9.26548 0.707789L15.0394 2.75273C16.3717 3.22458 16.3717 5.10875 15.0394 5.58061L9.26548 7.62554C8.94149 7.74029 8.58792 7.74029 8.26394 7.62554L2.48999 5.58061C1.15769 5.10875 1.15769 3.22458 2.49 2.75273L8.26394 0.707788Z" fill="white" stroke="#333333"/>
</svg>
