<svg width="36" height="20" viewBox="0 0 36 20" fill="none" xmlns="http://www.w3.org/2000/svg">
<path d="M17.277 8.1152C17.601 8.00045 17.9546 8.00045 18.2785 8.1152L30.0656 12.2898C31.3979 12.7616 31.3979 14.6458 30.0656 15.1176L18.2785 19.2922C17.9546 19.407 17.601 19.407 17.277 19.2922L5.49 15.1176C4.15769 14.6458 4.15769 12.7616 5.48999 12.2898L17.277 8.1152Z" fill="#EEEEEE" stroke="black"/>
<path d="M17.277 4.41149C17.601 4.29675 17.9546 4.29675 18.2785 4.41149L30.0656 8.58606C31.3979 9.05792 31.3979 10.9421 30.0656 11.4139L18.2785 15.5885C17.9546 15.7033 17.601 15.7033 17.277 15.5885L5.49 11.4139C4.15769 10.9421 4.15769 9.05792 5.48999 8.58606L17.277 4.41149Z" fill="#EEEEEE" stroke="black"/>
<path d="M17.277 0.707789C17.601 0.593043 17.9546 0.593043 18.2785 0.707789L30.0656 4.88235C31.3979 5.35421 31.3979 7.23838 30.0656 7.71024L18.2785 11.8848C17.9546 11.9995 17.601 11.9995 17.277 11.8848L5.49 7.71024C4.15769 7.23838 4.15769 5.35421 5.48999 4.88236L17.277 0.707789Z" fill="#EEEEEE" stroke="black"/>
</svg>