<svg width="25" height="15" viewBox="0 0 25 15" fill="none" xmlns="http://www.w3.org/2000/svg">
<path d="M11.9992 6.38487C12.3232 6.27012 12.6768 6.27012 13.0008 6.38487L19.51 8.69022C20.8423 9.16208 20.8423 11.0462 19.51 11.5181L13.0008 13.8235C12.6768 13.9382 12.3232 13.9382 11.9992 13.8235L5.49 11.5181C4.15769 11.0462 4.15769 9.16208 5.49 8.69022L11.9992 6.38487Z" fill="#EEEEEE" stroke="black"/>
<path d="M11.9992 3.78071C12.3232 3.66596 12.6768 3.66596 13.0008 3.78071L19.51 6.08606C20.8423 6.55792 20.8423 8.44209 19.51 8.91395L13.0008 11.2193C12.6768 11.334 12.3232 11.334 11.9992 11.2193L5.49 8.91395C4.15769 8.44209 4.15769 6.55792 5.49 6.08606L11.9992 3.78071Z" fill="#EEEEEE" stroke="black"/>
<path d="M11.9992 1.17654C12.3232 1.06179 12.6768 1.06179 13.0008 1.17654L19.51 3.48189C20.8423 3.95375 20.8423 5.83792 19.51 6.30977L13.0008 8.61513C12.6768 8.72987 12.3232 8.72987 11.9992 8.61513L5.49 6.30978C4.15769 5.83792 4.15769 3.95375 5.49 3.48189L11.9992 1.17654Z" fill="#EEEEEE" stroke="black"/>
</svg>
