<svg width="30" height="30" viewBox="0 0 21 22" fill="none" xmlns="http://www.w3.org/2000/svg">
<g clip-path="url(#clip0_685_4126)">
<path d="M14.5917 18.657V16.9404C14.5917 16.0298 14.23 15.1565 13.5861 14.5126C12.9422 13.8688 12.069 13.507 11.1584 13.507H4.29173C3.38115 13.507 2.50787 13.8688 1.864 14.5126C1.22012 15.1565 0.858398 16.0298 0.858398 16.9404V18.657" stroke="black" stroke-linecap="round" stroke-linejoin="round"/>
<path d="M7.72508 10.0737C9.62125 10.0737 11.1584 8.53654 11.1584 6.64036C11.1584 4.74418 9.62125 3.20703 7.72508 3.20703C5.8289 3.20703 4.29175 4.74418 4.29175 6.64036C4.29175 8.53654 5.8289 10.0737 7.72508 10.0737Z" stroke="black" stroke-linecap="round" stroke-linejoin="round"/>
<path d="M19.7417 18.657V16.9404C19.7412 16.1797 19.488 15.4407 19.0219 14.8394C18.5559 14.2382 17.9033 13.8088 17.1667 13.6186" stroke="black" stroke-linecap="round" stroke-linejoin="round"/>
<path d="M13.7334 3.31863C14.4719 3.50772 15.1265 3.93723 15.594 4.53944C16.0614 5.14166 16.3151 5.88232 16.3151 6.64466C16.3151 7.40701 16.0614 8.14767 15.594 8.74989C15.1265 9.3521 14.4719 9.78161 13.7334 9.9707" stroke="black" stroke-linecap="round" stroke-linejoin="round"/>
</g>
<defs>
<clipPath id="clip0_685_4126">
<rect width="20.6" height="20.6" fill="white" transform="translate(0 0.63208)"/>
</clipPath>
</defs>
</svg>
