<svg width="16" height="11" viewBox="0 0 16 11" fill="none" xmlns="http://www.w3.org/2000/svg">
<path d="M0.97168 11V0.978516H2.62598V4.92285H5.87988V0.978516H7.54102V11H5.87988V6.61816H2.62598V11H0.97168ZM9.19158 11V9.85795L12.2214 6.88778C12.5112 6.59517 12.7527 6.33523 12.9458 6.10795C13.139 5.88068 13.2839 5.66051 13.3805 5.44744C13.4771 5.23437 13.5254 5.0071 13.5254 4.76562C13.5254 4.49006 13.4629 4.25426 13.3379 4.05824C13.2129 3.85938 13.041 3.70597 12.8223 3.59801C12.6035 3.49006 12.3549 3.43608 12.0765 3.43608C11.7896 3.43608 11.5382 3.49574 11.3223 3.61506C11.1064 3.73153 10.9387 3.89773 10.8194 4.11364C10.7029 4.32955 10.6447 4.58665 10.6447 4.88494H9.14045C9.14045 4.33097 9.26687 3.84943 9.51971 3.44034C9.77255 3.03125 10.1206 2.71449 10.5637 2.49006C11.0098 2.26562 11.5211 2.15341 12.0978 2.15341C12.6831 2.15341 13.1973 2.26278 13.6404 2.48153C14.0836 2.70028 14.4274 3 14.6717 3.38068C14.9189 3.76136 15.0424 4.19602 15.0424 4.68466C15.0424 5.01136 14.9799 5.33239 14.8549 5.64773C14.7299 5.96307 14.5098 6.3125 14.1944 6.69602C13.8819 7.07955 13.443 7.54403 12.8777 8.08949L11.3734 9.61932V9.67898H15.1745V11H9.19158Z" fill="black"/>
</svg>
