<svg width="16" height="12" viewBox="0 0 16 12" fill="none" xmlns="http://www.w3.org/2000/svg">
<path d="M0.790039 11V0.978516H2.44434V4.92285H5.69824V0.978516H7.35938V11H5.69824V6.61816H2.44434V11H0.790039ZM12.142 11.1193C11.5284 11.1193 10.983 11.0142 10.5057 10.804C10.0313 10.5937 9.65625 10.3011 9.38068 9.92614C9.10511 9.55114 8.95881 9.1179 8.94176 8.62642H10.544C10.5582 8.86222 10.6364 9.06818 10.7784 9.24432C10.9205 9.41761 11.1094 9.55256 11.3452 9.64915C11.581 9.74574 11.8452 9.79403 12.1378 9.79403C12.4503 9.79403 12.7273 9.74006 12.9688 9.6321C13.2102 9.52131 13.3991 9.3679 13.5355 9.17188C13.6719 8.97585 13.7386 8.75 13.7358 8.49432C13.7386 8.23011 13.6705 7.99716 13.5312 7.79545C13.392 7.59375 13.1903 7.43608 12.9261 7.32244C12.6648 7.20881 12.3494 7.15199 11.9801 7.15199H11.2088V5.93324H11.9801C12.2841 5.93324 12.5497 5.88068 12.777 5.77557C13.0071 5.67045 13.1875 5.52273 13.3182 5.33239C13.4489 5.1392 13.5128 4.91619 13.5099 4.66335C13.5128 4.41619 13.4574 4.2017 13.3438 4.01989C13.233 3.83523 13.0753 3.69176 12.8707 3.58949C12.669 3.48722 12.4318 3.43608 12.1591 3.43608C11.892 3.43608 11.6449 3.48437 11.4176 3.58097C11.1903 3.67756 11.0071 3.81534 10.8679 3.99432C10.7287 4.17045 10.6548 4.38068 10.6463 4.625H9.125C9.13636 4.13636 9.27699 3.70739 9.54688 3.33807C9.8196 2.96591 10.1832 2.67614 10.6378 2.46875C11.0923 2.25852 11.6023 2.15341 12.1676 2.15341C12.75 2.15341 13.2557 2.26278 13.6847 2.48153C14.1165 2.69744 14.4503 2.98864 14.6861 3.35511C14.9219 3.72159 15.0398 4.12642 15.0398 4.5696C15.0426 5.06108 14.8977 5.47301 14.6051 5.8054C14.3153 6.13778 13.9347 6.35511 13.4631 6.45739V6.52557C14.0767 6.6108 14.5469 6.83807 14.8736 7.20739C15.2031 7.57386 15.3665 8.02983 15.3636 8.57528C15.3636 9.06392 15.2244 9.50142 14.946 9.88778C14.6705 10.2713 14.2898 10.5724 13.804 10.7912C13.321 11.0099 12.767 11.1193 12.142 11.1193Z" fill="black"/>
</svg>
