<svg width="18" height="18" viewBox="0 0 18 18" fill="none" xmlns="http://www.w3.org/2000/svg">
<path d="M7.61255 3.75001C6.90774 3.73861 6.22032 3.96911 5.66486 4.40311C5.1094 4.8371 4.71946 5.44837 4.56005 6.13501C4.46853 6.57199 4.47569 7.02389 4.58102 7.45775C4.68634 7.89162 4.88718 8.2965 5.16888 8.64288C5.45058 8.98925 5.80604 9.26839 6.20933 9.45992C6.61263 9.65145 7.05359 9.75056 7.50005 9.75001V14.25H9.00005V5.25001H10.5001V14.25H12.0001V5.25001H13.5001V3.75001H7.61255ZM6.00005 6.75001C6.00005 6.35218 6.15809 5.97065 6.43939 5.68935C6.7207 5.40804 7.10223 5.25001 7.50005 5.25001V8.25001C7.10223 8.25001 6.7207 8.09197 6.43939 7.81067C6.15809 7.52936 6.00005 7.14783 6.00005 6.75001Z" fill="black"/>
</svg>
